<svg width="58" height="47" xmlns="http://www.w3.org/2000/svg"><g fill="#ffffff" fill-rule="evenodd"><path d="M6.26 17.07c0 2.12-1.043 3.18-3.13 3.18-2.087 0-3.13-1.06-3.13-3.18V0h2.18v5.14a2.74 2.74 0 011.68-.48c1.6 0 2.4 1.06 2.4 3.18v9.23zm-4.08 0c0 .68.32 1 .95 1 .63 0 1-.34 1-1V7.84c0-.69-.32-1-1-1-.68 0-.95.34-.95 1v9.23zM14.15 17.07c0 2.107-1.043 3.167-3.13 3.18-2.08 0-3.13-1.06-3.13-3.18V7.83c0-2.12 1-3.17 3.13-3.17s3.13 1 3.13 3.17v9.24zM12 7.83c0-.68-.31-1-.94-1-.63 0-.94.35-.94 1v9.24c0 .68.32 1 .95 1 .63 0 1-.34 1-1L12 7.83z" fill-rule="nonzero"/><path d="M18 20h-2.2V0H18zM18.74 22.79c.63 0 .95-.35.95-1V4.9h2.18v16.86c0 2.12-1.05 3.18-3.13 3.18v-2.15z"/><path d="M25.7 13.53v3.54c0 .68.32 1 .95 1 .63 0 1-.34 1-1V15h2.18v2c0 2.107-1.043 3.167-3.13 3.18-2.08 0-3.13-1.06-3.13-3.18V7.83c0-2.12 1.05-3.17 3.13-3.17s3.13 1 3.13 3.17v5.7H25.7zm0-2.16h1.9V7.83c0-.68-.31-1-.94-1-.62 0-.94.35-.94 1l-.02 3.54z" fill-rule="nonzero"/><path d="M34.85 22.79c.63 0 1-.35 1-1V4.9H38v16.86c0 2.12-1 3.18-3.13 3.18l-.02-2.15z"/><path d="M41.81 13.53v3.54c0 .68.32 1 .95 1 .63 0 1-.34 1-1V15h2.18v2c0 2.107-1.043 3.167-3.13 3.18-2.08 0-3.13-1.06-3.13-3.18V7.83c0-2.12 1-3.17 3.13-3.17s3.13 1 3.13 3.17v5.7h-4.13zm0-2.16h1.9V7.83c0-.68-.31-1-.94-1-.62 0-.94.35-.94 1l-.02 3.54z" fill-rule="nonzero"/><path d="M19.69 1.06h2.17v2.17h-2.17zM35.83 1.06H38v2.17h-2.17zM4.08 26.61h2.18v15.11H4.08zM13.3 27.92l-3 11.65h3.08v2.15H7.89v-1.31l3-11.65H8v-2.15h5.3zM17.25 41.72h-2.18V29.55c0-2.12 1-3.17 3.13-3.17s3.13 1.05 3.13 3.17v12.17h-2.18V29.55c0-.68-.31-1-.94-1-.63 0-.94.34-.94 1l-.02 12.17z"/><path d="M27.05 29.55c0-.69-.32-1-.94-1-.63 0-.95.35-.95 1v2H23v-2c0-2.12 1-3.17 3.13-3.17s3.12 1.05 3.12 3.17v9.23C29.23 40.927 28.18 42 26.1 42s-3.113-1.073-3.1-3.22v-2.53c0-2.11.79-3.17 2.39-3.18a2.73 2.73 0 011.69.49l-.03-4.01zm-1.91 9.23c0 .69.32 1 1 1 .68 0 .95-.34.95-1v-2.54c0-.67-.33-1-.95-1-.62 0-1 .34-1 1v2.54z" fill-rule="nonzero"/><path d="M29.94 44.5c.63 0 .95-.34.95-1V26.61h2.18v16.87c0 2.12-1.043 3.18-3.13 3.18V44.5zM38.83 29.39a.85.85 0 00-.94-.87c-.62 0-.94.34-.94 1v12.2h-2.19V29.55c0-2.12 1-3.17 3.12-3.17a3.47 3.47 0 012 .53 3.42 3.42 0 012-.53c2.09 0 3.14 1.05 3.14 3.17v12.17h-2.11V29.55c0-.68-.32-1-.95-1a.84.84 0 00-.94.87v12.3h-2.19V29.39zM46.74 26.61h2.18v15.11h-2.18zM53.18 26.61h1.69v2.15h-1.69v13H51v-13h-1.56v-2.15H51v-4.89h2.18zM55.33 26.61h2.18v15.11h-2.18zM4.09 22.78h2.17v2.17H4.09zM30.92 22.78h2.17v2.17h-2.17zM46.75 22.78h2.17v2.17h-2.17zM55.34 22.78h2.17v2.17h-2.17z"/></g></svg>