<svg width="52" height="31" xmlns="http://www.w3.org/2000/svg"><g fill="none" fill-rule="evenodd"><path fill="#FFF" d="M0 0h51.71v30.16H0z"/><path fill="#3D4EA1" d="M0 10.05h51.71v20.11H0z"/><path fill="#CF223F" d="M0 20.11h51.71v10.06H0z"/><path d="M7.82 7.09c-.6 0-.43.78-.51 1.2-.22 2.89-.51 5.86.37 8.67a9.66 9.66 0 004.37 5.34 6.83 6.83 0 001.52.78 7.79 7.79 0 001.6-.82A9.66 9.66 0 0019.46 17c.9-2.85.58-5.88.36-8.81 0-.41 0-1.1-.57-1.06L7.82 7.09z" fill="#FFF"/><path d="M13.57 7.54v15.08c-7-3.38-6.21-9-5.75-15.08h5.75zm0 0v15.08c7-3.38 6.21-9 5.76-15.08h-5.76z" fill="#CF223F" fill-rule="nonzero"/><path d="M14.39 11.67c.74.024 1.477.117 2.2.28a2.71 2.71 0 010-1.82c-.723.16-1.46.25-2.2.27h-1.63a11.71 11.71 0 01-2.2-.27 2.71 2.71 0 010 1.82 11.72 11.72 0 012.2-.28h1.63zM15 14.42c.74.023 1.477.117 2.2.28a2.74 2.74 0 010-1.83 10.86 10.86 0 01-2.2.28h-2.87a11 11 0 01-2.21-.28 2.74 2.74 0 010 1.83 11.72 11.72 0 012.21-.28H15z" fill="#FFF"/><path d="M12.65 8.12c.17.718.268 1.452.29 2.19v9.34h1.27v-9.34a10.86 10.86 0 01.28-2.19 2.77 2.77 0 01-1.84 0" fill="#FFF"/><path d="M10.67 17.38a1.49 1.49 0 00-1.49 1.49 1.23 1.23 0 000 .19 9.47 9.47 0 001 1.22c.148.052.303.079.46.08a1.5 1.5 0 000-3" fill="#3D4EA1"/><path d="M13.57 16.5a1.9 1.9 0 101.91 1.9 1.91 1.91 0 00-1.91-1.9" fill="#3D4EA1"/><path d="M16.47 17.38a1.5 1.5 0 000 3c.157 0 .313-.027.46-.08a8.32 8.32 0 001-1.23 1 1 0 000-.18 1.5 1.5 0 00-1.5-1.49" fill="#3D4EA1"/><path d="M9.43 19.38a11 11 0 004.14 3.24 10.89 10.89 0 004.14-3.24H9.43z" fill="#3D4EA1"/></g></svg>