<svg width="52" height="31" xmlns="http://www.w3.org/2000/svg"><g fill="none" fill-rule="evenodd"><path fill="#FFF" d="M0 0h51.71v30.16H0z"/><path fill="#D02244" d="M34.63 10.91l17.08-9.57V0h-1.18L31.05 10.91zM33.82 19.86l17.89 10.02v-2l-14.32-8.02zM0 2.3l15.31 8.61h3.57L0 .29zM18.07 19.86L0 29.99v.17h3.27l18.38-10.3z"/><path fill="#2B3789" d="M48.17 0h-18.1v10.14zM22.07 0H4.04l18.03 10.14zM51.71 10.91V3.99l-12.28 6.92zM51.71 26.71v-6.85H39.43zM5.06 30.16h17.01v-9.53zM30.07 30.16h17.06l-17.06-9.53zM0 19.86v7.16l12.71-7.16zM0 10.91h12.71L0 3.74z"/><path fill="#D02244" d="M23.67 0v12.7H0v5.38h23.67v12.08h4.8V18.08h23.24V12.7H28.47V0z"/></g></svg>