<svg width="53" height="52" xmlns="http://www.w3.org/2000/svg"><g transform="translate(-6 -7)" fill="none" fill-rule="evenodd"><circle fill="#2B2E30" transform="rotate(-73.05 32.331 32.665)" cx="32.331" cy="32.665" r="25.66"/><g fill="#FFF"><path d="M18.22 13.06c-1.62 1-1.67 1.39-3.9 2.29-2.23.9-2.71.65-4.32 3.41-1.61 2.76-4.39 6.82-4 9.33.39 2.51-.1 3.91 1.23 5.22a10.11 10.11 0 012.29 3.2c.28.63-.28 1.11-.28 2.16s.14 1.11 1 1.11 0 .7.76 1.95.91 1.6 2 4.66c1.09 3.06 3.13 7.45 6 9.47 2.87 2.02-1.53-1.74-1.74-3.62-.21-1.88.74-1.88.74-3.34s1.4-.07 1.81-1.11c.41-1.04-.14-2.37.35-3.83s.56-2.51-1.32-3.27a9 9 0 01-3.83-3 6.21 6.21 0 00-2.44-2.15c-1.25-.7-1.8.14-2.64-.42-.84-.56-.49-.77-1.25-2s-1.33-.9-1.39-2c-.06-1.1 1.25-2.64 1.46-2.5.21.14 0 1.6.55 1.67.55.07-.21-1.53.42-2.58s1.12-2.5 2.51-3.34c1.39-.84 1.46-1.67 3-1.95s0-1.95 1-1.81c1 .14 1.74 1.12 2-.07.26-1.19.07-.9-1.11-2.23-1.18-1.33-2.3-1.87-2.92-.27-.62 1.6-1 3-1.74 2.15a1.63 1.63 0 01.34-2.5c.77-.35 2.37-2 3.48-1.32 1.11.68 2.3.48 2.51-.28.21-.76-1.33-1.3-.5-2.09.83-.79 2.51-1.18 2.51-.21s-.7 2.09.21 2.44c.91.35 3.13-1 3.76-1.12a8.79 8.79 0 003.55-1.18c1-.83 2.22-2.16 2.85-2.57.63-.41-2.58-.67-4.17-.25a47.82 47.82 0 01-5.22 1 9.07 9.07 0 00-3.56.95z"/><path d="M9.17 30.94c-.18.57.35-.14.7.84s-.56.9.49 1.18c1.05.28 2.5.35 1.95-.35s-3-2.08-3.14-1.67zM28.59 14.73c-.68.23-1.67.62-.62.76 1.05.14 2.71 0 2.43-.56-.28-.56-1.31-.38-1.81-.2zM49.2 44.31a2.24 2.24 0 00-1.47 1.11 9.72 9.72 0 00-.73 2.09c-.28.69.14 1.32.83.42.69-.9 2.17-3.83 1.37-3.62zM31.38 16.67c-.7.78-2 2.37-1.19 2.23.81-.14 1.47-1.25 1.54-.49.07.76 1.53.84 1.6.14.07-.7-.81-3.16-1.95-1.88z"/><path d="M57.48 23.7s-4.32-9.18-6.27-8.84a25.76 25.76 0 01-3.89.35c-1.81.14-.35-.83-1.12-1.32-.77-.49-1.39 1.39-2.36 1.25a3.56 3.56 0 01-2.51-1.32c-1.18-1.11-2.5-.28-3.55.21a19.37 19.37 0 00-2.64 1.81c-.84.56.34.7 1 1a2.58 2.58 0 002.37-.14c.62-.48.28-1.18 1.18-1.53.9-.35-.07 1.26.28 2.09.35.83-1 .84-1.81.91a4.69 4.69 0 01-2.58-.63c-1.32-.56-1 1.25-1.53 1.46-.53.21-2.36.84-2.23 1.53.13.69 1.26 1.39.28 1.26-.98-.13-2.22.48-2.29 1.25a2.59 2.59 0 001.32 2c.42.07 1.95-.42 2.23-1.19a3 3 0 012-1.67c1.12-.41 1.47 0 2.23 1s-.07.83.28 1.6c.35.77.91-1 1.32-.83.41.17 1.67 1.52 1.88.76.21-.76.49-1 1-.28s2.43.84 2.92 1.6c.49.76-1.11 1.05-1.81.91s-3.62-.07-4.31-.21a3.37 3.37 0 01-2.23-2.16c-.42-1.25-2-.28-2.72.14-.72.42-2.92.63-3.52 1-.6.37-1.07 1.67-2 2.51a3.79 3.79 0 00-1.32 3.06c.21.84-.07 3.13.77 4.66C28.69 37.47 31 38 32.7 38c1.7 0 2.65-.21 3.41.35.76.56 1.53 4.18 1.81 5.43s-1 2.92-.7 4.11c.3 1.19 1 3.89 1.88 4.45.88.56 4.74-2.16 5.15-3.27a11.48 11.48 0 012.63-3.9c1.17-1 0-2.16.23-4 .23-1.84 2.85-4 3.13-4.87.28-.87-.63-.69-2.3-1-1.67-.31-2.57-4.87-2.78-6.06-.21-1.19.49.21 1 1.26s1.53 3.06 2.23 4.38c.7 1.32 1.81-.9 2.92-1.68a1.89 1.89 0 00.63-2.5c-.28-.69-1.6-.76-2.16-1.46s-.14-1.25.56-.14a2.74 2.74 0 002.71 1.12c.77-.07 1.54 1.39 1.74 2.64a19.37 19.37 0 001.81 4s.07-2.51.21-3.55A2.62 2.62 0 0158.52 31l-1.04-7.3zM33 35.47c-.77-.07-1.6.9-1.88.21-.28-.69.67-1.68 1.58-1.68 1.67.08 1.04 1.54.3 1.47zm12.51-12.32c-.77.14-1.39-.42-2.09-.21s-.66-.3-.21-1.11c.45-.81.84-.28 1.74.13.9.41 1.32 1.04.56 1.19zm3.93 2.36c-.73.07-.31-1.18-1.28-2.08-.97-.9-.46-1.24.41-1.6.6-.26.14 1 .87 1.67.73.67.73 1.94 0 2.01z" fill-rule="nonzero"/></g></g></svg>