<svg width="52" height="59" xmlns="http://www.w3.org/2000/svg"><g fill="#ffffff" fill-rule="evenodd"><path d="M5.88 35.72c0 2-1 3-2.94 3s-2.94-1-2.94-3v-16h2.05v4.83a2.57 2.57 0 011.58-.45c1.5 0 2.25 1 2.25 3v8.62zm-3.83 0c0 .64.3 1 .89 1 .59 0 .89-.32.89-1v-8.67c0-.64-.3-1-.89-1-.59 0-.89.32-.89 1v8.67zM9.52 32.4v3.32c0 .64.29 1 .89 1 .6 0 .89-.32.89-1v-1.91h2v1.91c0 2-1 3-2.94 3s-2.94-1-2.94-3v-8.67c0-2 1-3 2.94-3s2.94 1 2.94 3v5.35H9.52zm0-2h1.78v-3.35c0-.64-.29-1-.89-1-.59 0-.88.32-.88 1l-.01 3.35z" fill-rule="nonzero"/><path d="M17.8 24.29h1.59v2H17.8v12.19h-2V26.31h-1.51v-2h1.47v-4.6h2zM23.19 24.29h1.58v2h-1.58v12.19h-2.05V26.31h-1.46v-2h1.46v-4.6h2.05z"/><path d="M27.76 32.4v3.32c0 .64.3 1 .89 1 .59 0 .9-.32.9-1v-1.91h2v1.91c0 2-1 3-2.94 3s-2.94-1-2.94-3v-8.67c0-2 1-3 2.94-3s2.94 1 2.94 3v5.35h-3.79zm0-2h1.79v-3.35c0-.64-.3-1-.89-1-.59 0-.88.32-.88 1l-.02 3.35z" fill-rule="nonzero"/><path d="M33.18 27.05c0-2 1-3 2.94-3v2c-.59 0-.88.32-.88 1v11.43h-2l-.06-11.43z"/><path d="M6.48.79h2.21V3H6.48V.79zm.08 3.81h2.05v14.19h-2L6.56 4.6z" fill-rule="nonzero"/><path d="M13.06 4.6h1.58v2h-1.58v12.19H11V6.62H9.55v-2H11V0h2.05zM15.73 4.59h2.53v2.08l-.77 2.64h-1.33l.42-2.37h-.85zM19.27 7.35c0-2 1-3 2.93-3 1.93 0 2.94 1 2.94 3v1.91h-2V7.35c0-.63-.3-.95-.89-1-.58 0-.88.32-.88 1v1.29c0 .63.64 1.41 1.92 2.32a4 4 0 011.91 3.28V16c0 2-1 3-2.93 3-1.93 0-2.94-1-2.94-3v-1.88h2V16c0 .667.3 1 .9 1 .59 0 .89-.32.89-1v-1.59c0-.667-.64-1.467-1.92-2.4a4 4 0 01-1.91-3.33l-.02-1.33zM11.4 44H13v2h-1.6v12.17H9.35V46H7.88v-2h1.47v-4.6h2.05z"/><path d="M19.8 55.41c0 2-1 3-2.94 3s-2.94-1-2.94-3v-8.67c0-2 1-3 2.94-3s2.94 1 2.94 3v8.67zm-2-8.67c0-.64-.3-1-.89-1-.59 0-.88.33-.88 1v8.67c0 .64.3 1 .89 1 .59 0 .9-.33.9-1l-.02-8.67z" fill-rule="nonzero"/><path d="M25.07 46.74c0-2 1-3 2.93-3v2c-.58 0-.88.33-.88 1v11.43h-2l-.05-11.43z"/><path d="M30.84 52.09v3.32c0 .64.3 1 .89 1 .59 0 .9-.33.9-1V53.5h2v1.91c0 2-1 3-2.95 3-1.95 0-2.93-1-2.93-3v-8.67c0-2 1-3 2.93-3 1.93 0 2.95 1 2.95 3v5.35h-3.79zm0-2h1.79v-3.35c0-.64-.3-1-.89-1-.59 0-.89.33-.89 1l-.01 3.35z" fill-rule="nonzero"/><path d="M38.31 58.17h-2V46.74c0-2 1-3 2.93-3 1.93 0 2.95 1 2.95 3v11.43h-2V46.74c0-.64-.3-1-.89-1-.59 0-.89.33-.89 1l-.1 11.43zM46.6 44h1.58v2H46.6v12.17h-2.05V46h-1.46v-2h1.46v-4.6h2.05z"/><path d="M51.55 44l-.16 10.36h-2L49.2 44h2.35zM49.2 55.82h2.35v2.35H49.2v-2.35z" fill-rule="nonzero"/></g></svg>