<svg viewBox="0 0 385 256" fill="white" xmlns="http://www.w3.org/2000/svg">
<path d="M24.6371 47.1242C24.3618 43.6499 22.462 41.8989 18.9562 41.8668H18.8644C15.0787 41.8668 13.1835 43.9295 13.1835 48.0547V121.599H0.00448124V48.0547C0.00448124 35.2756 6.30489 28.886 18.9103 28.886C24.0635 28.886 28.1751 29.954 31.2542 32.0945C34.2965 29.954 38.3943 28.886 43.5475 28.886C56.1851 28.886 62.5039 35.2756 62.5039 48.0547V121.599H49.3248V48.0547C49.3248 43.957 47.4159 41.8989 43.598 41.8668H43.5017C40.0233 41.8668 38.1511 43.6178 37.8712 47.1242V121.604H24.6417V47.1242H24.6371Z"/>
<path d="M72.4113 30.3299H85.5903V121.604H72.4113V30.3299ZM71.8973 5.81206H86.1501V20.0488H71.8973V5.81206Z"/>
<path d="M108.557 69.4557H120.066V48.0547C120.066 43.9616 118.157 41.8989 114.334 41.8668H114.243C110.457 41.8668 108.562 43.9295 108.562 48.0547V69.4557H108.557ZM108.557 82.4823V103.883C108.557 108.004 110.466 110.067 114.289 110.067C118.111 110.067 120.066 108.004 120.066 103.883V91.5992H133.245V103.883C133.245 116.658 126.926 123.061 114.293 123.098C101.683 123.098 95.3873 116.69 95.3873 103.883V48.0593C95.3873 35.2802 101.688 28.8906 114.293 28.8906C126.899 28.8906 133.245 35.2802 133.245 48.0593V82.4823H108.557Z"/>
<path d="M145.634 0.742545V30.3298H136.177V43.3107H145.634V121.604H158.813V43.3107H169.014V30.3298H158.813V0.742545H145.634Z"/>
<path d="M184.791 69.4557H196.295V48.0547C196.295 43.9615 194.386 41.8989 190.568 41.8668H190.476C186.691 41.8668 184.795 43.9295 184.795 48.0547V69.4557H184.791ZM184.791 82.4823V103.883C184.791 108.004 186.7 110.067 190.522 110.067C194.345 110.067 196.295 108.004 196.295 103.883V91.5992H209.474V103.883C209.474 116.658 203.155 123.061 190.522 123.098C177.912 123.098 171.616 116.69 171.616 103.883V48.0593C171.616 35.2802 177.917 28.8906 190.522 28.8906C203.128 28.8906 209.474 35.2802 209.474 48.0593V82.4823H184.791Z" />
<path d="M232.464 121.604H219.285V48.0547C219.285 35.2802 225.585 28.886 238.191 28.886C250.796 28.886 257.142 35.2802 257.142 48.0547V121.604H243.963V48.0547C243.963 43.9615 242.054 41.8989 238.237 41.8668H238.145C234.359 41.8668 232.464 43.9295 232.464 48.0547V121.604Z" />
<path d="M288.401 29.5873H301.58V120.861H288.401V29.5873ZM287.887 5.07405H302.14V19.3108H287.887V5.07405Z"/>
<path d="M311.368 47.3122C311.368 34.533 317.669 28.1435 330.274 28.1435C342.879 28.1435 349.23 34.533 349.23 47.3122V59.5917H336.051V47.3122C336.051 43.219 334.142 41.1564 330.32 41.1243H330.228C326.438 41.1243 324.547 43.1869 324.547 47.3122V55.5902C324.547 59.6559 328.663 64.6337 336.886 70.5237C345.119 76.3815 349.23 83.4036 349.23 91.5946V103.132C349.23 115.943 342.93 122.346 330.32 122.346C317.682 122.309 311.368 115.911 311.368 103.132V90.8475H324.547V103.132C324.547 107.252 326.47 109.315 330.32 109.315C334.17 109.315 336.051 107.252 336.051 103.132V92.7084C336.051 88.3081 331.935 83.1561 323.707 77.2616C315.48 71.4037 311.364 64.267 311.364 55.8652V47.303L311.368 47.3122Z"/>
<path d="M361.62 0V29.5919H352.167V42.5635H361.62V120.856H374.799V42.5635H385V29.5919H374.799V0H361.62Z"/>
<path d="M13.179 236.785C13.179 240.911 15.1017 242.973 18.9517 242.973C22.8017 242.973 24.6831 240.911 24.6831 236.785V181.007C24.6831 176.882 22.7604 174.819 18.9058 174.819C15.0513 174.819 13.2111 176.868 13.179 180.961V236.785ZM37.8621 236.785C37.8621 249.597 31.5617 256 18.9517 256C6.31418 255.968 0 249.565 0 236.785V133.649H13.179V164.726C15.7855 162.774 19.1858 161.793 23.3799 161.793C33.0347 161.829 37.8621 168.228 37.8621 181.007V236.785Z"/>
<path d="M60.8474 202.358H72.3515V180.957C72.3515 176.864 70.4426 174.801 66.6247 174.769H66.5329C62.7472 174.769 60.852 176.832 60.852 180.957V202.358H60.8474ZM60.8474 215.385V236.785C60.8474 240.906 62.7564 242.969 66.5788 242.969C70.4013 242.969 72.3515 240.906 72.3515 236.785V224.501H85.5306V236.785C85.5306 249.56 79.2118 255.963 66.5788 256C53.9688 256 47.673 249.597 47.673 236.785V180.961C47.673 168.182 53.9734 161.793 66.5788 161.793C79.1842 161.793 85.5306 168.182 85.5306 180.961V215.385H60.8474Z"/>
<path d="M95.3414 180.957C95.3414 168.178 101.642 161.788 114.247 161.788C126.853 161.788 133.204 168.178 133.204 180.957V193.236H120.025V180.957C120.025 176.864 118.116 174.801 114.293 174.769H114.201C110.411 174.769 108.52 176.832 108.52 180.957V189.235C108.52 193.301 112.637 198.278 120.86 204.168C129.092 210.031 133.204 217.053 133.204 225.244V236.781C133.204 249.592 126.903 255.995 114.293 255.995C101.656 255.959 95.3414 249.56 95.3414 236.781V224.497H108.52V236.781C108.52 240.902 110.443 242.964 114.293 242.964C118.143 242.964 120.025 240.902 120.025 236.781V226.358C120.025 221.957 115.908 216.805 107.681 210.911C99.4529 205.048 95.3368 197.916 95.3368 189.515V180.952L95.3414 180.957Z"/>
<path d="M143.01 180.957C143.01 168.178 149.31 161.788 161.916 161.788C174.521 161.788 180.872 168.178 180.872 180.957V193.236H167.693V180.957C167.693 176.864 165.784 174.801 161.962 174.769H161.87C158.079 174.769 156.189 176.832 156.189 180.957V189.235C156.189 193.301 160.305 198.278 168.528 204.168C176.76 210.031 180.872 217.053 180.872 225.244V236.781C180.872 249.592 174.572 255.995 161.962 255.995C149.324 255.959 143.01 249.56 143.01 236.781V224.497H156.189V236.781C156.189 240.902 158.112 242.964 161.962 242.964C165.812 242.964 167.693 240.902 167.693 236.781V226.358C167.693 221.957 163.577 216.805 155.349 210.911C147.121 205.048 143.005 197.916 143.005 189.515V180.952L143.01 180.957Z"/>
<path d="M203.862 202.358H215.366V180.957C215.366 176.864 213.457 174.801 209.639 174.769H209.547C205.762 174.769 203.866 176.832 203.866 180.957V202.358H203.862ZM203.862 215.385V236.785C203.862 240.906 205.771 242.969 209.593 242.969C213.416 242.969 215.366 240.906 215.366 236.785V224.501H228.545V236.785C228.545 249.56 222.226 255.963 209.593 256C196.983 256 190.683 249.597 190.683 236.785V180.961C190.683 168.182 196.983 161.793 209.593 161.793C222.203 161.793 228.545 168.182 228.545 180.961V215.385H203.862Z"/>
<path d="M238.351 180.957C238.351 168.178 244.652 161.788 257.257 161.788H257.445V174.769H257.211C253.421 174.769 251.53 176.832 251.53 180.957V254.506H238.351V180.957Z"/>
<path d="M263.071 254.506H278.209V239.384H263.071V254.506ZM263.071 163.237L264.053 229.855H277.232L278.209 163.237H263.071Z"/>
</svg>
