<svg width="48" height="61" xmlns="http://www.w3.org/2000/svg"><g fill="#111" fill-rule="evenodd"><path d="M9.7 18.16V6.5a.8.8 0 01.88-.83c.6 0 .9.33.9 1v11.49h2.06V6.64c0-2-1-3-3-3a3.29 3.29 0 00-1.92.5 3.37 3.37 0 00-1.93-.5c-2 0-3 1-3 3v11.52h2.15V6.64c0-.64.3-1 .89-1a.8.8 0 01.89.83v11.69H9.7z"/><path d="M18.67 18.4c2 0 3-1 3-3v-1.94h-2.09v1.93c0 .64-.31 1-.91 1-.6 0-.89-.33-.89-1V12h3.86V6.64c0-2-1-3-3-3s-3 1-3 3v8.75c.07 2 1.06 3.01 3.03 3.01zm-.89-11.76c0-.64.29-1 .89-1 .6 0 .9.33.9 1V10h-1.8l.01-3.36z" fill-rule="nonzero"/><path d="M23.79 6.64v11.52h2.06V6.64c0-.64.3-1 .89-1v-2c-1.97 0-2.95 1-2.95 3z"/><path d="M3.66 22.56a2.64 2.64 0 00-1.6.46v-4.87H0v16.16c0 2 1 3 3 3s2.95-1 2.95-3v-8.74c-.03-2-.78-3-2.29-3.01zm.2 11.75c0 .65-.3 1-.89 1-.59 0-.91-.32-.91-1v-8.75c0-.667.3-1 .9-1 .6 0 .9.33.9 1v8.75zM11 22.56c-2 0-3 1-3 3v8.74c0 2 1 3 3 3s3-1 3-3v-1.91h-2.07v1.92c0 .65-.3 1-.9 1-.6 0-.9-.32-.9-1V31H14v-5.43c0-2.01-1-3.01-3-3.01zm.9 6.36h-1.8v-3.35c0-.65.3-1 .89-1 .6 0 .89.32.89 1l.02 3.35z" fill-rule="nonzero"/><path d="M10.15 21.36h1.14l1.51-1.84h-1.62zM16.14 25.56v11.53h2.07V25.56c0-.64.29-1 .89-1v-2c-1.97 0-2.96 1-2.96 3z"/><path d="M23.55 37.32c2 0 3-1 3-3v-1.93h-2.1v1.92c0 .65-.3 1-.9 1-.6 0-.9-.32-.9-1V31h3.87v-5.43c0-2-1-3-3-3s-3 1-3 3v8.74c.07 2.01 1.06 3.01 3.03 3.01zm-.9-11.75c0-.65.3-1 .89-1 .6 0 .89.32.89 1v3.35h-1.8l.02-3.35z" fill-rule="nonzero"/><path d="M40.98 22.79h2.06v14.3h-2.06zM40.9 18.95h2.23v2.23H40.9zM16.14 38.29h2.06v2.06h-2.06zM16.14 57.63c0 .65-.3 1-.9 1v2c2 0 3-1 3-3v-16h-2.1v16z"/><path d="M23.55 41.44c-2 0-3 1-3 3v8.75c0 2 1 3 3 3s3-1 3-3v-8.75c-.02-2-1.02-3-3-3zm.91 11.75c0 .64-.31 1-.91 1-.6 0-.89-.33-.89-1v-8.75c0-.64.29-1 .88-1 .6 0 .9.33.9 1l.02 8.75zM32.33 41.44a2.57 2.57 0 00-1.6.46V5.67h1.43v-2h-1.43V0h-2.06v3.64h-1.33v2h1.33v47.55c0 2 1 3 3 3s3-1 3-3v-8.74c-.08-2-.83-3.01-2.34-3.01zm.2 11.75c0 .64-.3 1-.9 1-.6 0-.9-.33-.9-1v-8.75c0-.64.3-1 .9-1 .6 0 .9.32.9 1v8.75z" fill-rule="nonzero"/><path d="M40.4 41.44a2.54 2.54 0 00-1.59.46V25.57c0-2-1-3-3-3s-3 1-3 3v11.52h2.06V25.57c0-.65.3-1 .89-1 .59 0 .89.32.89 1v27.62c0 2 1 3 3 3s3-1 3-3v-8.74c.02-2-.74-3.01-2.25-3.01zm.21 11.75c0 .64-.3 1-.9 1-.6 0-.9-.33-.9-1v-8.75c0-.64.3-1 .89-1 .59 0 .91.32.91 1v8.75z" fill-rule="nonzero"/><path d="M47.07 52.1l.15-10.43h-2.37l.16 10.43zM44.85 53.59h2.37v2.37h-2.37z"/></g></svg>