<svg width="53" height="50" xmlns="http://www.w3.org/2000/svg"><g fill="#ffffff" fill-rule="evenodd"><path d="M7.13 18c0 2.08-.79 3.12-2.36 3.13a2.66 2.66 0 01-1.66-.48v5.07H1V8.91c0-2.08 1.017-3.123 3.05-3.13 2.05 0 3.08 1 3.08 3.13V18zm-4 0c0 .67.31 1 .94 1 .63 0 .93-.32.93-1V8.91c0-.67-.31-1-.94-1-.63 0-.93.34-.93 1V18z" fill-rule="nonzero"/><path d="M8.49 8.91c0-2.087 1.027-3.13 3.08-3.13V7.9c-.62 0-.92.33-.92 1v12H8.49V8.91z"/><path d="M14.36 14.52V18c0 .67.31 1 .93 1 .62 0 .94-.34.94-1v-2h2.15v2c0 2.08-1.03 3.123-3.09 3.13-2.06.007-3.087-1.037-3.08-3.13V8.91c0-2.087 1.027-3.13 3.08-3.13s3.083 1.043 3.09 3.13v5.61h-4.02zm0-2.13h1.87V8.91c0-.67-.31-1-.93-1-.62 0-.93.33-.93 1l-.01 3.48z" fill-rule="nonzero"/><path d="M21.88 20.9h-2.15v-12c0-2.087 1.027-3.13 3.08-3.13s3.083 1.047 3.09 3.14v12h-2.15v-12c0-.67-.31-1-.93-1-.62 0-.92.33-.92 1l-.02 11.99z"/><path d="M31.27 8.91c0-.68-.31-1-.93-1-.63 0-.94.34-.94 1v2h-2.15v-2c0-2.087 1.027-3.13 3.08-3.13 2.06 0 3.08 1 3.08 3.13V18c0 2.09-1 3.13-3.08 3.13s-3.08-1.04-3.08-3.13v-2.5c0-2.08.78-3.13 2.36-3.13a2.7 2.7 0 011.66.48V8.91zM29.39 18c0 .67.32 1 .94 1 .62 0 .94-.34.94-1v-2.5c0-.66-.32-1-.94-1-.62 0-.94.34-.94 1V18zM33.85 23.64c.62 0 .93-.33.93-1V6H37v16.63c0 2.093-1.023 3.14-3.07 3.14l-.08-2.13zM34.73 2h2.32v2.34h-2.32V2zM42.33 8.91c0-.68-.31-1-.93-1-.62 0-.93.34-.93 1v2h-2.16v-2c0-2.087 1.03-3.13 3.09-3.13 2.06 0 3.087 1.043 3.08 3.13V18c0 2.093-1.027 3.137-3.08 3.13-2.053-.007-3.083-1.05-3.09-3.13v-2.5c0-2.08.79-3.13 2.36-3.13a2.68 2.68 0 011.66.48V8.91zM40.46 18c0 .67.31 1 .94 1 .63 0 .93-.34.93-1v-2.5c0-.66-.32-1-.93-1-.61 0-.94.34-.94 1V18z" fill-rule="nonzero"/><path d="M48.36 6H50v2.13h-1.64V20.9h-2.15V8.13h-1.54V6h1.54V1.19h2.15z"/><path d="M0 47.68c.6 0 .9-.33.9-1v-16H3v16c0 2-1 3-3 3v-2zm.85-20.86h2.24v2.24H.85v-2.24zM6.37 38.88v3.36c0 .65.3 1 .9 1 .6 0 .91-.32.91-1v-1.93h2.07v1.93c0 2-1 3-3 3s-3-1-3-3v-8.78c0-2 1-3 3-3s3 1 3 3v5.42H6.37zm0-2.05h1.81v-3.37c0-.64-.3-1-.9-1-.59 0-.89.32-.89 1l-.02 3.37z" fill-rule="nonzero"/><path d="M17.64 45h-2.07V26h2.07z"/><path d="M21 38.88v3.36c0 .65.3 1 .9 1 .6 0 .91-.32.91-1v-1.93h2.09v1.93c0 2-1 3-3 3s-3-1-3-3v-8.78c0-2 1-3 3-3s3 1 3 3v5.42H21zm0-2.05h1.81v-3.37c0-.64-.3-1-.9-1-.6 0-.9.32-.9 1L21 36.83zM32.15 42.24c0 2-.76 3-2.27 3a2.61 2.61 0 01-1.61-.46v4.89H26.2v-16.2c0-2 1-3 3-3s3 1 3 3l-.05 8.77zm-3.88 0c0 .65.31 1 .91 1 .6 0 .9-.32.9-1v-8.77c0-.65-.3-1-.91-1-.61 0-.89.32-.9 1v8.77z" fill-rule="nonzero"/><path d="M33.45 33.46c0-2 1-3 3-3s3 1 3 3v1.93h-2.12v-1.93c0-.64-.3-1-.9-1-.6 0-.9.32-.9 1v1.31c0 .63.65 1.42 1.94 2.34a4 4 0 011.94 3.32v1.81c0 2-1 3-3 3s-3-1-3-3v-1.93h2.07v1.93c0 .65.3 1 .91 1 .61 0 .9-.32.9-1V40.6c0-.69-.65-1.5-1.94-2.43a4 4 0 01-1.94-3.36l.04-1.35z"/><path d="M40.62 26.82h2.24v2.24h-2.24v-2.24zm.08 3.86h2.07V45H40.7V30.68zM46.14 38.88v3.36c0 .65.3 1 .9 1 .6 0 .91-.32.91-1v-1.93H50v1.93c0 2-1 3-3 3s-3-1-3-3v-8.78c0-2 1-3 3-3s3 1 3 3v5.42h-3.86zm0-2.05H48v-3.37c0-.64-.3-1-.9-1-.6 0-.9.32-.9 1l-.06 3.37z" fill-rule="nonzero"/><path d="M37.44 29.37h-2.03l-1.56-2.52h1.73l.87 1.01.86-1.01h1.7zM49.36 3.33a2.38 2.38 0 001.25-1.68 2.11 2.11 0 00-.5-1.59L51.73 0a2.16 2.16 0 01.58 1.86 3.17 3.17 0 01-2.46 2.45l-.49-.98z"/></g></svg>