<svg width="127" height="148" viewBox="0 0 127 148" fill="#ffffff" xmlns="http://www.w3.org/2000/svg">
<path d="M13.7 37.3C13.7 41.9 12 44.2 8.5 44.2C7 44.2 5.8 43.8 4.8 43.1V99.7H0V17.1C0 12.5 2.3 10.2 6.8 10.2C11.3 10.2 13.6 12.5 13.6 17.1V37.3H13.7ZM4.8 37.3C4.8 38.8 5.5 39.5 6.9 39.5C8.3 39.5 9 38.8 9 37.3V17.1C9 15.6 8.3 14.9 6.9 14.9C5.5 14.9 4.8 15.6 4.8 17.1V37.3Z" />
<path d="M17.4 17.1C17.4 12.5 19.7 10.2 24.2 10.2H24.3V14.9H24.2C22.8 14.9 22.2 15.6 22.2 17.1V43.7H17.4V17.1Z" />
<path d="M39.8 37.3C39.8 41.9 37.5 44.2 33 44.2C28.5 44.2 26.2 41.9 26.2 37.3V17.1C26.2 12.5 28.5 10.2 33 10.2C37.6 10.2 39.8 12.5 39.8 17.1V37.3ZM35 17.1C35 15.6 34.3 14.9 32.9 14.9C31.5 14.9 30.9 15.6 30.9 17.1V37.3C30.9 38.8 31.6 39.5 33 39.5C34.4 39.5 35.1 38.8 35.1 37.3V17.1H35Z" />
<path d="M50.2 10.7H53.9V15.4H50.2V43.7H45.4V15.4H42V10.7H45.4V0H50.2V10.7Z" />
<path d="M69.7 37.3C69.7 41.9 67.4 44.2 62.9 44.2C58.4 44.2 56.1 41.9 56.1 37.3V17.1C56.1 12.5 58.4 10.2 62.9 10.2C67.5 10.2 69.7 12.5 69.7 17.1V37.3ZM64.9 17.1C64.9 15.6 64.2 14.9 62.8 14.9C61.4 14.9 60.8 15.6 60.8 17.1V37.3C60.8 38.8 61.5 39.5 62.9 39.5C64.3 39.5 65 38.8 65 37.3V17.1H64.9Z" />
<path d="M85.2 13.5L78.7 39H85.4V43.7H73.4V40.8L79.9 15.4H73.7V10.7H85.3V13.5H85.2Z" />
<path d="M93.9 29.5V37.2C93.9 38.7 94.6 39.4 96 39.4C97.4 39.4 98.1 38.7 98.1 37.2V32.8H102.9V37.2C102.9 41.8 100.6 44.1 96.1 44.1C91.6 44.1 89.3 41.8 89.3 37.2V17.1C89.3 12.5 91.6 10.2 96.1 10.2C100.7 10.2 102.9 12.5 102.9 17.1V29.5H93.9ZM93.9 24.8H98V17.1C98 15.6 97.3 14.9 95.9 14.9C94.5 14.9 93.9 15.6 93.9 17.1V24.8Z" />
<path d="M13.7 82.6C13.7 87.2 12 89.5 8.5 89.5C7 89.5 5.8 89.1 4.8 88.4V99.6H0V62.5C0 57.9 2.3 55.6 6.8 55.6C11.3 55.6 13.6 57.9 13.6 62.5V82.6H13.7ZM4.8 82.6C4.8 84.1 5.5 84.8 6.9 84.8C8.3 84.8 9 84.1 9 82.6V62.5C9 61 8.3 60.3 6.9 60.3C5.5 60.3 4.8 61 4.8 62.5V82.6Z" />
<path d="M17.4 62.5C17.4 57.9 19.7 55.6 24.2 55.6H24.3V60.3H24.2C22.8 60.3 22.2 61 22.2 62.5V89H17.4V62.5Z" />
<path d="M39.8 82.6C39.8 87.2 37.5 89.5 33 89.5C28.5 89.5 26.2 87.2 26.2 82.6V62.5C26.2 57.9 28.5 55.6 33 55.6C37.6 55.6 39.8 57.9 39.8 62.5V82.6ZM35.1 62.5C35.1 61 34.4 60.3 33 60.3C31.6 60.3 31 61 31 62.5V82.7C31 84.2 31.7 84.9 33.1 84.9C34.5 84.9 35.2 84.2 35.2 82.7V62.5H35.1Z" />
<path d="M48.3 89H43.5V62.5C43.5 57.9 45.8 55.6 50.3 55.6C54.9 55.6 57.1 57.9 57.1 62.5V89H52.3V62.5C52.3 61 51.6 60.3 50.2 60.3C48.8 60.3 48.2 61 48.2 62.5V89H48.3Z" />
<path d="M68.9 62.5C68.9 61 68.2 60.3 66.8 60.3C65.4 60.3 64.7 61.1 64.7 62.5V66.9H60V62.5C60 57.9 62.3 55.6 66.8 55.6C71.3 55.6 73.6 57.9 73.6 62.5V82.7C73.6 87.3 71.3 89.6 66.8 89.6C62.2 89.6 60 87.3 60 82.7V77.2C60 72.6 61.7 70.3 65.2 70.3C66.7 70.3 67.9 70.7 68.9 71.4V62.5ZM64.8 82.6C64.8 84.1 65.5 84.8 66.9 84.8C68.3 84.8 69 84.1 69 82.6V77.1C69 75.6 68.3 74.9 66.9 74.9C65.5 74.9 64.8 75.6 64.8 77.1V82.6Z" />
<path d="M75.8 95.1C77.2 95.1 77.9 94.4 77.9 92.9V56.1H82.7V92.9C82.7 97.5 80.4 99.8 75.9 99.8V95.1H75.8ZM77.8 47.2H82.9V52.3H77.8V47.2Z" />
<path d="M91.2 74.9V82.6C91.2 84.1 91.9 84.8 93.3 84.8C94.7 84.8 95.4 84.1 95.4 82.6V78.2H100.2V82.6C100.2 87.2 97.9 89.5 93.4 89.5C88.9 89.5 86.6 87.2 86.6 82.6V62.5C86.6 57.9 88.9 55.6 93.4 55.6C98 55.6 100.2 57.9 100.2 62.5V74.9H91.2ZM91.2 70.2H95.3V62.5C95.3 61 94.6 60.3 93.2 60.3C91.8 60.3 91.2 61 91.2 62.5V70.2Z" />
<path d="M112.6 62.1C112.5 60.8 111.8 60.2 110.6 60.2C109.2 60.2 108.6 60.9 108.6 62.4V89H103.8V62.5C103.8 57.9 106.1 55.6 110.6 55.6C112.5 55.6 113.9 56 115.1 56.8C116.2 56 117.7 55.6 119.5 55.6C124.1 55.6 126.3 57.9 126.3 62.5V89H121.5V62.5C121.5 61 120.8 60.3 119.4 60.3C118.1 60.3 117.5 60.9 117.4 62.2V89H112.6V62.1Z" />
<path d="M81.3 7.7H77.6L74.7 3H77.9L79.5 4.9L81.1 3H84.2L81.3 7.7Z" />
<path d="M7.2 142.6C8.6 142.6 9.3 141.9 9.3 140.4V103.6H14.1V140.4C14.1 145 11.8 147.3 7.3 147.3V142.6H7.2ZM9.1 94.7H14.2V99.8H9.1V94.7Z" />
<path d="M22.5 122.4V130.1C22.5 131.6 23.2 132.3 24.6 132.3C26 132.3 26.7 131.6 26.7 130.1V125.7H31.5V130.1C31.5 134.7 29.2 137 24.7 137C20.2 137 17.9 134.7 17.9 130.1V110C17.9 105.4 20.2 103.1 24.7 103.1C29.3 103.1 31.5 105.4 31.5 110V122.4H22.5ZM22.5 117.7H26.7V110C26.7 108.5 26 107.8 24.6 107.8C23.2 107.8 22.6 108.5 22.6 110V117.7H22.5Z" />
<path d="M48.4 136.5H43.6V92.9H48.4V136.5Z" />
<path d="M56.9 122.4V130.1C56.9 131.6 57.6 132.3 59 132.3C60.4 132.3 61.1 131.6 61.1 130.1V125.7H65.9V130.1C65.9 134.7 63.6 137 59.1 137C54.6 137 52.3 134.7 52.3 130.1V110C52.3 105.4 54.6 103.1 59.1 103.1C63.7 103.1 65.9 105.4 65.9 110V122.4H56.9ZM56.9 117.7H61V110C61 108.5 60.3 107.8 58.9 107.8C57.5 107.8 56.9 108.5 56.9 110V117.7Z" />
<path d="M83.1 130.1C83.1 134.7 81.4 137 77.9 137C76.4 137 75.2 136.6 74.2 135.9V147.1H69.4V110C69.4 105.4 71.7 103.1 76.2 103.1C80.7 103.1 83 105.4 83 110V130.1H83.1ZM74.2 130.1C74.2 131.6 74.9 132.3 76.3 132.3C77.7 132.3 78.4 131.6 78.4 130.1V110C78.4 108.5 77.7 107.8 76.3 107.8C74.9 107.8 74.2 108.5 74.2 110V130.1Z" />
<path d="M86.8 110C86.8 105.4 89.1 103.1 93.6 103.1C98.2 103.1 100.4 105.4 100.4 110V114.4H95.6V110C95.6 108.5 94.9 107.8 93.5 107.8C92.1 107.8 91.5 108.5 91.5 110V113C91.5 114.5 93 116.3 96 118.4C99 120.5 100.5 123.1 100.5 126V130.2C100.5 134.8 98.2 137.1 93.7 137.1C89.1 137.1 86.9 134.8 86.9 130.2V125.8H91.7V130.2C91.7 131.7 92.4 132.4 93.8 132.4C95.2 132.4 95.9 131.7 95.9 130.2V126.4C95.9 124.8 94.4 122.9 91.4 120.8C88.4 118.7 86.9 116.1 86.9 113.1V110H86.8Z" />
<path d="M104.2 103.5H109V136.5H104.2V103.5Z" />
<path d="M95.5 99.8H91.8L88.9 95.2H92.1L93.7 97.1L95.3 95.2H98.4L95.5 99.8Z" />
<path d="M108 99.8H105L108.3 93.8H112.8L108 99.8Z" />
<path d="M67.9 52.3H65L68.3 46.3H72.8L67.9 52.3Z" />
</svg>
