<svg width="150" height="72" xmlns="http://www.w3.org/2000/svg"><g fill="none" fill-rule="evenodd"><path d="M93.36.1l-.26 1.53c-5 .67-8.89 2-10.82 7a50.36 50.36 0 00-2 7l-5.14 22.28a32.78 32.78 0 00-1 5.54c0 6.47 12.13 4.89 15.62 2.26 1.92-1.45 4.85-4.7 8.59-10L123.76 0h5.92l.11 40.93c.26 5.48 4.5 7.22 8.79 7.21h10.8v2l-38.4.1.55-1.89c4.09-.64 9.1-2.72 9.08-8.63l-.07-29.16-15.81 23.11c-4.31 6.16-10 13.24 1.66 14.63l-.56 1.89-52.41.14.48-1.61C62.27 48.39 64.17 44.7 66 37l5.77-24.81a24.39 24.39 0 00.76-4.73c.03-7.1-11.47-5.65-15.31-2.75-1.93 1.46-4.85 4.71-8.6 10l-25.36 35.7h-5.91L17.23 9.5C17 4 12.74 2.27 8.44 2.28L0 2.31v-2l36-.06-.55 1.89c-4.09.64-9.1 2.72-9.08 8.63l.07 29.15L42.3 16.76c4.3-6.17 10-13.24-1.67-14.64l.56-1.89L93.36.1z" fill="#A81B40"/><path fill="#231F20" d="M20.38 61.84L14 71.92l-4.59.01-1.66-10.07h3.11l1.12 8.23 5.03-8.24 3.37-.01z"/><path d="M24 71.91h-3.2l2.35-10.07h3.17L24 71.91zm2.6-11.1h-3.19l.53-2.3h3.17l-.54 2.31.03-.01z" fill="#231F20" fill-rule="nonzero"/><path d="M39.18 71.88H31a12.57 12.57 0 01-1.5-.07 3 3 0 01-1-.24 1.1 1.1 0 01-.54-.47 1.69 1.69 0 01-.17-.8c.02-.42.09-.837.21-1.24l.13-.56a7.3 7.3 0 01.49-1.5 2.08 2.08 0 01.77-.86c.374-.22.79-.36 1.22-.41a13.44 13.44 0 011.84-.1h3.68l-.56 2.42h-3.42a1.09 1.09 0 00-.75.26.81.81 0 00-.28.6c0 .35.23.53.69.53h4.76l.9-3.81a5 5 0 00.12-.77.5.5 0 00-.29-.51 3.85 3.85 0 00-1.2-.12h-6.48l.56-2.41h7.67c.5-.007 1.002.017 1.5.07a3.6 3.6 0 011 .24c.227.098.416.267.54.48.122.245.181.517.17.79a5.36 5.36 0 01-.18 1.26l-1.68 7.21-.02.01zM52.85 64.23h-3.7a7.45 7.45 0 00-.94 0 1.15 1.15 0 00-.55.2 1 1 0 00-.33.43 4.6 4.6 0 00-.21.72l-1.46 6.24H42.5l2.34-10.05H48l-.28 1.26a2.73 2.73 0 012.36-1.26h3.32l-.56 2.42.01.04zM66.28 68h-7.36l.56-2.42h4.3c.1-.43.15-.68.15-.72 0-.47-.41-.7-1.23-.7h-2.52a7.16 7.16 0 00-.87 0c-.2.025-.39.093-.56.2a1.09 1.09 0 00-.36.43 2.76 2.76 0 00-.24.75L57.58 68a4.34 4.34 0 00-.1.74.52.52 0 00.3.53 3.85 3.85 0 001.2.12h6.48l-.56 2.4h-7.69a13.38 13.38 0 01-1.55-.07 2.84 2.84 0 01-1-.25 1.14 1.14 0 01-.51-.48 1.49 1.49 0 01-.16-.75c.003-.19.02-.381.05-.57 0-.21.09-.45.16-.71l1-4.35a3.42 3.42 0 011.37-2.2 5.4 5.4 0 013-.67h4.53a6.61 6.61 0 012.47.32c.476.23.757.734.7 1.26a5.65 5.65 0 01-.18 1.28l-.81 3.4zM80.7 71.8h-3.14L79 65.57c.067-.252.11-.51.13-.77a.49.49 0 00-.3-.51 4.26 4.26 0 00-1.2-.11h-2.51a7.69 7.69 0 00-.94 0 1.19 1.19 0 00-.55.2 1 1 0 00-.32.43 4.84 4.84 0 00-.22.72l-1.45 6.24h-3.17l2.35-10H74L73.71 63a2.72 2.72 0 012.36-1.26h3.32a6.69 6.69 0 012.47.31c.476.23.757.734.7 1.26a5.29 5.29 0 01-.18 1.26L80.7 71.8zM89.87 71.78h-2.54a6.66 6.66 0 01-2.47-.31 1.24 1.24 0 01-.7-1.27 5.28 5.28 0 01.18-1.2l2.45-10.54H90l-.79 3.33h3.06l-.59 2.42h-3L87.73 68a5.57 5.57 0 00-.13.77.47.47 0 00.3.51 3.85 3.85 0 001.2.12h1.34l-.57 2.41v-.03zM108.27 71.75h-6.59a13.22 13.22 0 01-1.57-.08 3.35 3.35 0 01-1-.26 1 1 0 01-.5-.47 1.74 1.74 0 01-.14-.77c0-.426.058-.85.17-1.26l1-4.37c.123-.508.3-1 .53-1.47a2.2 2.2 0 01.79-.86 3.37 3.37 0 011.23-.41 12.91 12.91 0 011.8-.1h6.59l-.57 2.42h-5.4a7.57 7.57 0 00-.94 0 1.15 1.15 0 00-.55.2.94.94 0 00-.32.43 4.84 4.84 0 00-.22.72l-.56 2.42a4.31 4.31 0 00-.13.77.49.49 0 00.3.51c.388.103.79.144 1.19.12h5.41l-.56 2.42.04.04z" fill="#231F20"/><path d="M123.74 68.88a5.49 5.49 0 01-.5 1.46 2.29 2.29 0 01-.77.86 2.88 2.88 0 01-1.22.42 15.32 15.32 0 01-1.85.11h-4.89a6.69 6.69 0 01-2.47-.31 1.25 1.25 0 01-.7-1.26c.01-.426.07-.849.18-1.26l1-4.37a6.83 6.83 0 01.52-1.47 2.31 2.31 0 01.77-.86c.37-.22.782-.36 1.21-.41a13.13 13.13 0 011.82-.11h4.89a13.34 13.34 0 011.57.08 3.44 3.44 0 011 .26 1 1 0 01.5.48c.097.241.145.5.14.76a5.29 5.29 0 01-.18 1.26l-1 4.37-.02-.01zm-2.91-1l.56-2.42c.067-.252.11-.51.13-.77a.49.49 0 00-.3-.51 3.53 3.53 0 00-1.22-.08h-2.52a7.31 7.31 0 00-.89 0c-.2.013-.395.07-.57.17a.91.91 0 00-.34.42 3.1 3.1 0 00-.23.77l-.57 2.42c-.06.253-.1.51-.12.77a.5.5 0 00.29.51c.393.093.797.13 1.2.11h2.52c.313.02.627.02.94 0a1.15 1.15 0 00.55-.2 1 1 0 00.33-.42 5.28 5.28 0 00.21-.73l.03-.04z" fill="#231F20" fill-rule="nonzero"/><path d="M144.66 71.68h-3.14l1.48-6.23c.057-.253.09-.51.1-.77a.49.49 0 00-.3-.51 3.94 3.94 0 00-1.2-.11h-1.23a7.45 7.45 0 00-.94 0 1.15 1.15 0 00-.55.2.89.89 0 00-.32.43 4.19 4.19 0 00-.22.72l-1.46 6.23h-3.18l1.61-7a.5.5 0 00-.3-.52 4.31 4.31 0 00-1.2-.11h-1.23a7.45 7.45 0 00-.94.05c-.2.02-.392.089-.56.2a1 1 0 00-.32.43 5 5 0 00-.21.72l-1.46 6.24h-3.16l2.34-10h3.17l-.28 1.25a2.73 2.73 0 012.36-1.26h2a7.4 7.4 0 012.35.25c.414.141.718.498.79.93a1.85 1.85 0 011-.86 3.92 3.92 0 011.6-.33h2a6.58 6.58 0 012.48.31c.485.222.771.73.71 1.26a5.29 5.29 0 01-.2 1.26l-1.66 7.21.07.01zM95.56 71.82h-2.95l.5-2.5 2.95-.01-.5 2.51z" fill="#231F20"/></g></svg>